<?xml version="1.0" encoding="UTF-8"?>
<svg id="Warstwa_1" data-name="Warstwa 1" xmlns="http://www.w3.org/2000/svg" viewBox="0 0 1080 1080">
  <defs>
    <style>
      .cls-1 {
        fill: #fff;
      }

      .cls-2 {
        fill: #adba94;
      }
    </style>
  </defs>
  <rect class="cls-2" y="0" width="1080" height="1080"/>
  <path class="cls-1" d="M602.87,233.49l-1.55,7.59c142.05,28.86,245.14,155.16,245.14,300.34s-95.09,262.81-231.23,297.17c-1.55.37-3.26.04-4.6-1.01-1.39-1.08-2.19-2.71-2.19-4.47v-117.57l1.18,1.42c1.77,1.22,3.65,1.88,5.54,2.1.44,0,1,.11,1.44.11,4.32,0,8.97-2.1,14.17-6.53,8.41-7.2,13.84-17.94,19.04-28.45,1.44-2.77,2.66-5.31,4.1-7.86,1.33-2.55,2.66-4.87,3.99-7.2,4.21-7.2,7.75-13.4,10.19-22.81,4.65-18.05,2.1-26.02-5.87-41.85,8.41-9.52,10.52-18.05,12.18-24.47l1.44-5.76c5.65-21.59,14.06-54.25,12.62-74.18-.78-11.74-4.1-22.25-7.31-32.44-2.77-8.41-5.54-17.16-6.75-26.46-.22-1.99-.33-4.1-.44-6.2-.22-2.99-.33-6.09-1-9.08-5.43-28.68-23.03-45.17-52.37-48.94-2.1-.22-3.99-.66-5.76-1.11-1.33-.22-2.55-.44-3.88-.66-2.1-.33-3.87-.55-5.76-.78-4.32-.33-7.64-.66-12.29-2.99-1.99-1-3.54-2.32-4.98-3.54-3.76-3.1-7.31-6.09-15.83-1.88-6.53,3.21-8.3,7.64-9.41,14.5-4.1,25.8,14.28,48.05,34.54,56.8.89.33,2.99,1,5.87,1.88,2.1.66,6.53,2.1,8.64,2.88-1.66,11.07-2.88,22.25,0,34.65,3.1,12.95,9.08,23.8,14.84,34.32,6.53,11.96,13.4,24.25,15.61,39.75.44,3.32.78,8.41,1.11,14.17,1,16.94,2.1,36.2,8.08,42.85,1.44,1.66,9.85,14.06,9.19,22.03-1.22,15.61-7.2,26.57-14.06,39.3l-2.33,4.43c-1,1.77-1.99,3.76-3.1,5.87-4.98,9.96-11.29,22.25-19.71,27.79-4.32,2.88-6.86,2.33-9.74-1.99-2.77-3.99.22-14.5,2.55-22.14,1.11-3.99,2.21-7.64,2.66-10.52,2.32-17.71-1.55-30.67-8.19-44.51.55-1.33,1-2.77,1.66-4.21,3.54-9.08,7.67-18.37,7.45-28.78,0,0-.05-2.56-.44-3.11-1.24-1.79-5.4-1.96-6.38-.44-.32.5-.63,2.33-.63,2.33-1.44,10.96-5.54,22.48-12.4,35.21-13.51,24.91-31.55,44.95-55.14,61.45-6.75,4.65-14.17,9.08-22.03,13.73-26.79,15.83-57.13,33.66-62.11,66.98-.22,1.44-.71,5.69-.71,5.8l-1.87-.17c-6.4-.38-13.69-7.07-16.46-11.94-6.87-11.85-3.43-31.77,2.55-45.28,6.42-14.28,21.37-24.25,35.87-33.88,7.53-4.98,15.39-10.19,21.81-15.94.11-.11,11.29-10.07,11.4-14.28,0-1-.33-1.77-1-2.44l-.66-.44-.44-.11c-2.1-.44-3.21.22-4.21,1.33l-.33.33c-.89.89-1.66,1.99-2.44,2.99-.77,1-1.55,2.1-2.44,2.99-8.08,7.86-17.94,14.17-27.68,20.26-6.09,3.99-12.51,7.97-18.27,12.4-1.11.89-3.43,3.1-5.87,5.42-1.44,1.33-4.1,3.76-4.87,4.43-.89.11-3.21-.11-8.41-3.99-8.08-5.87-12.73-11.51-10.96-21.59,2.88-16.72,16.83-26.35,31.66-36.65,9.08-6.31,18.49-12.84,25.13-21.15,2.1-2.77,6.85-10.54,4.21-12.62l-1.22-.66c-2.79-.75-3.25,1.08-3.99,1.99-8.86,11.96-17.16,17.38-26.79,23.69-5.2,3.43-10.63,6.98-16.5,11.74-.78.66-1.99,1.88-3.65,3.54-1.33,1.22-3.98,3.88-4.43,4.21-1.66.78-7.53-4.87-9.85-9.3-3.43-6.42-3.43-14.28,0-21.37,4.21-8.75,13.4-13.84,22.36-18.93,4.21-2.33,8.64-4.87,12.51-7.64.11-.11,12.51-9.63,14.06-14.28.22-.77.89-3.1-.11-4.98-.44-.89-1.33-1.44-2.22-1.77-2.44-.55-4.43,1.77-6.2,3.88-.44.55-.89,1-1.11,1.22-7.08,6.31-14.5,11.74-21.92,16.16-1.99,1.11-4.1,2.21-6.2,3.21-5.32,2.66-10.85,5.42-14.95,10.41-5.98-2.88-13.4-10.74-14.17-16.72-1.99-15.28,7.64-23.36,18.93-32.66,4.65-3.87,9.41-7.75,13.17-12.29.22-.22,5.32-6.2,4.87-9.74-.11-.89-.66-1.66-1.55-2.33l-1-.33c-3.99-.33-6.42,2.66-8.53,5.09-.77.89-1.55,1.88-2.32,2.44-.66.55-1.22,1-1.99,1.44-1.22-2.21-3.43-3.54-5.31-4.76-1.11-.66-2.21-1.33-2.88-1.99-3.21-3.54-3.76-16.39-4.1-24.14,0-2.21-.11-4.21-.22-5.65-.11-2.33-.44-4.76-.77-7.53-.78-7.09-1.66-14.95-.78-20.37.55-3.65,5.54-12.07,10.63-19.15,1,1,2.33,2.55,2.99,3.32,1.55,1.99,3.21,3.76,4.21,4.76,5.87,5.09,14.17,7.97,22.81,11.07,9.41,3.32,19.26,6.86,25.46,13.29,5.32,4.98,9.97,10.74,14.5,16.39,1.44,1.88,2.99,3.65,4.54,5.54.55,5.09-.66,12.4-4.1,17.05-1.88,2.44-4.1,3.99-6.75,4.32-3.65.44-12.18-3.32-17.82-5.87l-.44-.11c-1.99-.89-3.65-1.66-4.98-2.21-1.88-.78-3.88-1.33-5.76-1.77-1.99-.55-3.99-1.11-5.76-1.88-4.32-1.88-15.5-9.63-19.04-12.84-4.21-3.99-5.87-14.61-6.09-22.48v-2.1l-1.99-.22c-1.99-.22-3.54.78-4.32,2.77-.44,1.11-.66,2.44-.77,3.32-2.32,19.26,5.76,26.13,19.49,35.21,5.2,3.54,8.64,4.76,13.06,6.31,1.44.66,3.1,1.22,4.98,1.88,1.99.89,4.21,1.88,6.64,2.99,11.74,5.54,28.01,13.18,38.31-.78,3.54-4.76,6.75-12.51,6.31-19.6,6.86-.66,12.84-4.32,16.94-10.19,4.87-7.31,5.98-16.83,2.77-24.91-.33-.66-.88-1.66-1.55-2.77-.33-.44-1-1.44-1.44-2.33,9.85-6.2,11.96-20.48,8.41-31.89,11.4-5.87,18.82-15.83,19.93-27.01,2.88-29.45-13.62-55.36-28.34-78.28-10.19-15.94-22.03-30.89-45.73-23.36-1.55.44-3.1,1.11-4.54,1.66v-65.32c0-4.21-1.88-8.08-5.2-10.52-3.32-2.55-7.53-3.32-11.51-2.21-64.32,18.16-122.34,57.57-163.19,110.94-42.29,55.14-64.66,121.01-64.66,190.65s22.36,135.62,64.77,190.76c38.97,50.71,93.33,88.9,154,108.06l.22-1.55.33-1.66.33-1.55.22-1.55.33-1.66c-58.68-18.82-111.27-55.8-149.13-104.96-41.19-53.81-63-118.02-63-185.89s21.81-132.08,63-185.67c39.86-52.04,96.32-90.34,158.99-108.17.44-.11.89-.22,1.33-.22,1.11,0,2.22.44,3.1,1.11,1.33,1,2.1,2.44,2.1,4.1v69.75c-4.98,3.54-8.3,7.86-9.85,12.84-2.88-.78-5.76-.55-8.75.66-7.08,2.77-12.95,10.63-14.95,16.94-1.88,5.76-4.54,23.69-4.65,29.45,0,3.21,1,6.09,1.99,9.08.22.66.44,1.44.66,2.1-7.2,6.2-12.62,15.5-16.27,28.23-2.44,8.19-3.76,13.62-1.33,22.25.55,2.21,1.66,4.21,2.77,6.09.22.44.33.78.55,1.11l-.77,1c-6.98,8.3-14.73,17.82-14.5,29.34.22,11.96,1.66,26.57,3.1,40.63l.22,1.77c.44,4.87,1,11.51,3.21,15.5,1.99,3.87,6.75,6.86,10.41,8.75-13.51,11.29-26.79,25.02-24.14,44.95,1.33,9.3,10.41,18.71,18.71,22.81-4.21,9.74-4.65,17.71-1.88,26.46,1.77,5.42,7.2,14.06,13.73,17.05-5.2,9.52-11.29,25.69-1.99,37.75,5.09,6.75,11.63,11.62,17.94,13.84-6.87,13.51-18.6,42.96-2.55,63.88,5.65,7.42,19.15,15.5,28.67,10.74.44-.22.78-.44,1.11-.66l.55-2.88,1.55-8.75c.75-3.22.98-4.1,1.53-5.76.55-1.66,2.9-7.19,3.56-8.63,1.99-4.98,4.65-9.63,8.53-13.84l1.11-1.11c3.54-4.21,7.75-8.08,12.18-11.62h.11c8.63-6.86,18.49-12.62,28.23-18.38,5.76-3.32,11.29-6.53,16.5-9.96,17.6-11.51,42.07-30.45,58.68-55.36,2.1-3.1,3.99-6.42,5.87-9.63.33-.66.78-1.22,1.11-1.77,3.43,10.3,6.09,22.7,3.1,37.53-.55,2.55-1.44,5.31-2.33,8.19-1.55,4.65-2.99,9.52-3.43,14.28-.16,1.64-.13,3.19.03,4.71v130.71c0,4.16,1.89,8.02,5.19,10.58,2.35,1.84,5.17,2.8,8.05,2.8,1.06,0,2.14-.14,3.2-.4,139.59-35.24,237.08-160.52,237.08-304.68s-105.71-278.35-251.35-307.93ZM658.01,595.41c-1.99-8.97-2.66-18.38-3.21-27.46-.66-10.19-1.33-20.7-3.88-30.78-2.99-11.96-8.75-22.25-14.39-32.22-8.53-15.17-16.5-29.45-15.39-48.71.11-1.55.33-3.1.66-4.76.22-1.77.55-3.65.66-5.54,1.11.55,2.21,1.33,3.32,2.1,2.32,1.77,7.38,3.87,8.87,2.95,1.18-.74,2.47-2.02,2.77-3.38.8-3.55-2.01-5.88-5.55-8.65-5.2-3.99-12.51-6.09-19.71-8.08-3.99-1.22-7.86-2.21-10.96-3.65-17.71-7.75-33.44-28.56-28.23-48.6,1.22-4.54,3.43-4.98,6.2-4.21.55.22,2.33,1.66,3.1,2.33,1.11.89,2.21,1.77,3.1,2.32,9.19,5.43,17.38,5.87,26.24,6.31,4.98.33,10.3.55,15.83,1.99,8.08,2.21,22.36,11.29,26.79,18.49,6.64,10.74,7.86,21.37,9.08,32.55.55,5.54,1.22,11.29,2.55,17.27,1.11,5.09,2.88,9.85,4.76,14.72,1.66,4.54,3.32,9.3,4.43,13.95,3.32,14.5,3.76,26.35,1.77,38.42-2.77,16.16-7.86,41.63-13.29,60.56-1.44,4.87-3.32,8.86-5.54,12.07ZM474.78,328.25c2.44-.78,7.75-2.1,9.85-2.1,12.29-.44,20.59,11.07,27.35,21.81,5.09,7.97,11.18,18.38,16.05,27.24,7.86,14.28,18.6,44.51,2.66,56.69-1.77,1.44-5.44,3.1-7.77,3.21-.33-.55-1.98-3.99-2.31-4.54-2.88-6.09-5.32-12.62-7.75-18.82-3.87-10.52-7.97-21.37-14.61-30.89-4.87-6.86-10.85-11.74-16.61-16.39-3.76-2.99-7.64-6.09-11.07-9.74-5.98-6.2-10.3-12.4-10.41-15.06-.11-3.43,9.08-9.52,14.62-11.4ZM435.25,377.74c.33-1.44.78-2.88,1-4.54.11-1.11.22-2.21.33-3.32l.11-.44c1.11-9.3,2.21-18.71,10.18-23.91,1.22-.78,3.65-1.33,4.65-1.33.11.44.33,1,.55,1.55.78,2.21,1.55,4.21,2.22,5.31,5.09,8.86,12.4,14.61,19.6,20.37,4.98,3.88,10.08,7.97,14.28,13.06,7.86,9.63,11.96,21.7,15.83,33.32,2.21,6.42,4.43,13.06,7.2,19.26,1.33,2.77,2.88,4.65,4.21,6.42,1.99,2.44,3.54,4.43,4.21,8.86.55,4.54-.78,11.74-3.99,15.39-1.33,1.55-2.99,2.21-4.76,2.21-4.87-.11-12.51-8.19-17.05-12.95-1.33-1.33-2.44-2.55-3.43-3.54-10.18-9.85-17.93-18.82-28.01-30.45-1.22-1.33-2.66-2.99-4.43-4.87l-.22-.33c-7.64-8.41-21.92-24.14-23.14-31.44-.55-3.21,0-5.65.66-8.64ZM423.96,414.28c2.44-5.54,4.98-9.96,7.75-12.95,3.65,5.31,7.42,10.41,11.4,15.28,11.74,14.39,21.37,25.46,29.56,33.88,7.31,7.64,22.7,23.58,31.44,27.79,1.11.55,2.1.89,3.1,1.11,1.77.55,2.66.89,3.43,1.88,3.87,4.87,4.54,13.4,1.77,19.6-1.77,3.88-4.87,6.2-8.64,6.53-3.43.11-9.63-8.3-12.29-11.96-1.33-1.77-2.44-3.32-3.43-4.43-6.75-7.64-17.38-14.95-29.12-20.04-3.1-1.44-6.2-2.55-9.41-3.65-6.86-2.33-13.4-4.54-18.82-9.74-8.64-8.3-12.07-15.28-12.07-23.03,0-5.87,1.99-12.4,5.31-20.26Z"/>
</svg>